<svg xmlns="http://www.w3.org/2000/svg" id="app_store" width="207" height="70" viewBox="0 0 207 70">
    <defs>
        <style>
            .cls-1{fill:#343a40}.cls-2{fill:#fff;fill-rule:evenodd}
        </style>
    </defs>
    <rect id="Rectangle_1678" width="207" height="70" class="cls-1" data-name="Rectangle 1678" rx="8.4"/>
    <g id="Group_3966" data-name="Group 3966">
        <path id="Path_5138" d="M45.316 33.4a9 9 0 0 1 4.294-7.557 9.237 9.237 0 0 0-7.272-3.927c-3.06-.322-6.027 1.828-7.585 1.828-1.59 0-3.99-1.8-6.576-1.744a9.681 9.681 0 0 0-8.149 4.965c-3.524 6.094-.9 15.05 2.48 19.977 1.69 2.414 3.663 5.107 6.246 5.012 2.528-.1 3.472-1.61 6.521-1.61 3.022 0 3.909 1.61 6.543 1.548 2.712-.04 4.42-2.422 6.05-4.858a19.887 19.887 0 0 0 2.767-5.634 8.708 8.708 0 0 1-5.32-8.005M40.34 18.673a8.864 8.864 0 0 0 2.03-6.353 9.046 9.046 0 0 0-5.844 3.02 8.427 8.427 0 0 0-2.084 6.118 7.465 7.465 0 0 0 5.9-2.785" class="cls-2" data-name="Path 5138"/>
    </g>
    <g id="Group_3967" data-name="Group 3967">
        <path id="Path_5139" d="M81.921 51.6H78.39l-1.934-6.072H69.73L67.887 51.6h-3.439l6.664-20.674h4.115zm-6.05-8.62l-1.75-5.4q-.276-.831-1.043-3.9h-.062q-.308 1.32-.983 3.9l-1.72 5.4zm23.154.983a8.435 8.435 0 0 1-2.068 6.01 6.068 6.068 0 0 1-4.6 1.965 4.606 4.606 0 0 1-4.257-2.111v7.822h-3.32V41.6q0-2.388-.123-4.9h2.916l.185 2.365h.062a5.9 5.9 0 0 1 9.442-.587 8.236 8.236 0 0 1 1.763 5.493zm-3.377.121a6.134 6.134 0 0 0-.983-3.588 3.4 3.4 0 0 0-2.887-1.473 3.44 3.44 0 0 0-2.225.814 3.751 3.751 0 0 0-1.305 2.133 4.271 4.271 0 0 0-.154 1.007v2.493a3.989 3.989 0 0 0 1 2.746 3.318 3.318 0 0 0 2.594 1.12 3.4 3.4 0 0 0 2.912-1.442 6.341 6.341 0 0 0 1.046-3.805zm20.542-.121a8.435 8.435 0 0 1-2.068 6.01 6.071 6.071 0 0 1-4.6 1.965 4.607 4.607 0 0 1-4.261-2.116v7.822h-3.316V41.6q0-2.388-.123-4.9h2.916l.185 2.365h.063a5.9 5.9 0 0 1 9.443-.587 8.247 8.247 0 0 1 1.763 5.493zm-3.38.121a6.127 6.127 0 0 0-.984-3.588 3.392 3.392 0 0 0-2.883-1.473 3.458 3.458 0 0 0-2.229.814 3.759 3.759 0 0 0-1.3 2.133 4.444 4.444 0 0 0-.155 1.007v2.493a4 4 0 0 0 1 2.746 3.322 3.322 0 0 0 2.6 1.12 3.4 3.4 0 0 0 2.916-1.442 6.341 6.341 0 0 0 1.045-3.805zm22.572 1.718a5.513 5.513 0 0 1-1.84 4.295 8.164 8.164 0 0 1-5.638 1.81 9.858 9.858 0 0 1-5.359-1.288l.767-2.761a9.247 9.247 0 0 0 4.79 1.29 4.523 4.523 0 0 0 2.916-.844 2.753 2.753 0 0 0 1.047-2.253 2.885 2.885 0 0 0-.862-2.119 7.99 7.99 0 0 0-2.854-1.592q-5.436-2.025-5.437-5.923a5.224 5.224 0 0 1 1.918-4.17 7.589 7.589 0 0 1 5.082-1.628 10.048 10.048 0 0 1 4.7.982l-.832 2.7a8.228 8.228 0 0 0-3.976-.95 4.044 4.044 0 0 0-2.744.859 2.456 2.456 0 0 0-.833 1.873 2.523 2.523 0 0 0 .955 2.023 10.694 10.694 0 0 0 3.007 1.6 10.2 10.2 0 0 1 3.93 2.513 5.235 5.235 0 0 1 1.265 3.587m10.991-6.624h-3.655v7.238q0 2.761 1.935 2.76a5.775 5.775 0 0 0 1.472-.155l.092 2.516a7.514 7.514 0 0 1-2.577.366 3.984 3.984 0 0 1-3.073-1.2 5.866 5.866 0 0 1-1.106-4.02v-7.51h-2.176V36.69h2.176v-2.73l3.257-.981v3.711h3.655v2.492m16.457 4.847a8.166 8.166 0 0 1-1.966 5.644 7.017 7.017 0 0 1-5.465 2.27 6.678 6.678 0 0 1-5.236-2.177 7.919 7.919 0 0 1-1.95-5.489 8.114 8.114 0 0 1 2.01-5.673 6.971 6.971 0 0 1 5.42-2.21 6.834 6.834 0 0 1 5.282 2.179 7.824 7.824 0 0 1 1.9 5.456zm-3.437.076a6.672 6.672 0 0 0-.888-3.517 3.283 3.283 0 0 0-2.98-1.775 3.326 3.326 0 0 0-3.04 1.775 6.759 6.759 0 0 0-.89 3.579 6.621 6.621 0 0 0 .89 3.517 3.4 3.4 0 0 0 5.994-.028 6.709 6.709 0 0 0 .914-3.551zm14.219-4.495a5.834 5.834 0 0 0-1.045-.09 3.13 3.13 0 0 0-2.7 1.32 4.955 4.955 0 0 0-.827 2.943V51.6h-3.316V41.392a99.67 99.67 0 0 0-.1-4.693h2.888l.121 2.852h.092a5.1 5.1 0 0 1 1.658-2.361 4 4 0 0 1 2.4-.8 5.591 5.591 0 0 1 .83.06v3.16m14.829 3.836a7.876 7.876 0 0 1-.12 1.5h-9.947a4.323 4.323 0 0 0 1.442 3.378 4.941 4.941 0 0 0 3.254 1.04 10.971 10.971 0 0 0 4.025-.705l.519 2.3a12.5 12.5 0 0 1-5 .921 7.259 7.259 0 0 1-5.453-2.038 7.543 7.543 0 0 1-1.98-5.475 8.524 8.524 0 0 1 1.845-5.612 6.357 6.357 0 0 1 5.218-2.39 5.558 5.558 0 0 1 4.883 2.39 8.033 8.033 0 0 1 1.317 4.69zm-3.161-.859a4.488 4.488 0 0 0-.644-2.546 2.9 2.9 0 0 0-2.641-1.383 3.145 3.145 0 0 0-2.64 1.35 4.947 4.947 0 0 0-.98 2.576h6.9z" class="cls-2" data-name="Path 5139"/>
    </g>
    <g id="Group_3968" data-name="Group 3968">
        <path id="Path_5140" d="M74.273 23.53h-1.738l-.95-2.984H68.28l-.906 2.985h-1.69l3.274-10.162h2.022l3.293 10.162zM71.3 19.294l-.86-2.653c-.09-.272-.257-.9-.513-1.914H69.9c-.106.436-.257 1.07-.484 1.914l-.845 2.653H71.3zM82.462 16.2l-2.777 7.327H78.1L75.413 16.2h1.75l1.254 3.875c.212.648.392 1.266.527 1.853h.046q.227-.937.527-1.853l1.238-3.875h1.707m5.913 7.326l-.121-.843h-.045a2.5 2.5 0 0 1-2.143 1.01 2.135 2.135 0 0 1-2.25-2.156c0-1.809 1.57-2.744 4.287-2.744v-.135c0-.965-.513-1.448-1.524-1.448a3.425 3.425 0 0 0-1.916.544l-.331-1.07a4.7 4.7 0 0 1 2.52-.634c1.917 0 2.884 1.01 2.884 3.03v2.7a10.807 10.807 0 0 0 .106 1.748h-1.467zm-.227-3.648c-1.812 0-2.717.438-2.717 1.477a1.038 1.038 0 0 0 1.117 1.145 1.559 1.559 0 0 0 1.6-1.491v-1.127zM93.366 15a.973.973 0 1 1 1.026-.98.957.957 0 0 1-1.026.98zm-.784 1.2h1.63v7.327h-1.63zm4.526-3.362h1.63v10.693h-1.63zm8.557 10.688l-.123-.843h-.042a2.5 2.5 0 0 1-2.143 1.01 2.134 2.134 0 0 1-2.249-2.156c0-1.809 1.57-2.744 4.287-2.744v-.135c0-.965-.514-1.448-1.525-1.448a3.43 3.43 0 0 0-1.916.544l-.332-1.072a4.7 4.7 0 0 1 2.52-.634c1.917 0 2.886 1.01 2.886 3.031v2.7a11.261 11.261 0 0 0 .1 1.749h-1.463zm-.227-3.648c-1.812 0-2.717.438-2.717 1.477a1.038 1.038 0 0 0 1.116 1.145 1.559 1.559 0 0 0 1.6-1.491v-1.127zm8.189 3.815a2.5 2.5 0 0 1-2.308-1.3h-.03l-.094 1.13h-1.387c.043-.586.059-1.251.059-1.974v-8.707h1.633v4.434h.03a2.516 2.516 0 0 1 2.338-1.22c1.767 0 3 1.508 3 3.707 0 2.275-1.375 3.934-3.246 3.934zm-.33-6.363a1.874 1.874 0 0 0-1.8 1.945v1.285a1.8 1.8 0 0 0 1.767 1.84c1.22 0 1.948-.994 1.948-2.577 0-1.478-.757-2.49-1.919-2.49zm5.988-4.492h1.629v10.693h-1.629zm10.5 7.418h-4.893a2.1 2.1 0 0 0 2.308 2.17 5.51 5.51 0 0 0 1.978-.347l.254 1.13a6.114 6.114 0 0 1-2.46.453 3.4 3.4 0 0 1-3.652-3.693c0-2.246 1.39-3.935 3.47-3.935 1.87 0 3.05 1.387 3.05 3.483a3.159 3.159 0 0 1-.055.738zm-1.493-1.156c0-1.131-.576-1.93-1.618-1.93a1.935 1.935 0 0 0-1.782 1.93zm11.371 4.6a3.489 3.489 0 0 1-3.532-3.769 3.57 3.57 0 0 1 3.655-3.874 3.462 3.462 0 0 1 3.532 3.755 3.592 3.592 0 0 1-3.655 3.888zm.063-6.453c-1.178 0-1.932 1.1-1.932 2.638 0 1.508.77 2.608 1.916 2.608s1.916-1.176 1.916-2.64c0-1.494-.754-2.609-1.9-2.609zm12.354 6.283h-1.626v-4.206c0-1.3-.5-1.945-1.481-1.945a1.693 1.693 0 0 0-1.631 1.794v4.358h-1.627V18.3c0-.647-.019-1.342-.062-2.095h1.433l.077 1.13h.046a2.631 2.631 0 0 1 2.324-1.281c1.536 0 2.547 1.176 2.547 3.09v4.389m10.664-6.106h-1.793v3.558q0 1.359.949 1.358a3.251 3.251 0 0 0 .725-.076l.045 1.236a3.615 3.615 0 0 1-1.266.182c-1.286 0-2.052-.708-2.052-2.563v-3.697h-1.068V16.2h1.068v-1.338l1.6-.483V16.2h1.792v1.222m8.632 6.105h-1.632v-4.172c0-1.311-.5-1.975-1.479-1.975a1.6 1.6 0 0 0-1.628 1.734v4.417h-1.631V12.842h1.631v4.4h.031a2.468 2.468 0 0 1 2.2-1.192c1.554 0 2.5 1.206 2.5 3.121v4.358m8.332-3.269h-4.891a2.1 2.1 0 0 0 2.308 2.17 5.479 5.479 0 0 0 1.975-.347l.255 1.13a6.1 6.1 0 0 1-2.46.453 3.4 3.4 0 0 1-3.652-3.693c0-2.246 1.389-3.935 3.47-3.935 1.87 0 3.05 1.387 3.05 3.483a3.159 3.159 0 0 1-.055.738zm-1.49-1.16c0-1.131-.573-1.93-1.615-1.93a1.933 1.933 0 0 0-1.782 1.93z" class="cls-2" data-name="Path 5140"/>
    </g>
</svg>
