<svg xmlns="http://www.w3.org/2000/svg" width="13.525" height="15.079" viewBox="0 0 13.525 15.079">
    <defs>
        <style>
            .cls-1,.cls-2,.cls-5{fill:#e2136e}.cls-1{stroke:#e2136e}.cls-3,.cls-5{stroke:none}.cls-4{fill:none}
        </style>
    </defs>
    <g id="Group_3523" data-name="Group 3523" transform="translate(101.816 -5890)">
        <g id="Ellipse_663" class="cls-1" data-name="Ellipse 663" transform="translate(-99.184 5890)">
            <ellipse cx="4.063" cy="3.915" class="cls-3" rx="4.063" ry="3.915"/>
            <ellipse cx="4.063" cy="3.915" class="cls-4" rx="3.563" ry="3.415"/>
        </g>
        <g id="Path_4695" class="cls-2" data-name="Path 4695">
            <path d="M7.79 29.357c-.47 0-1.707-.158-3.027-.756-1.002-.453-2.323-1.295-3.04-2.759.418-1.028 1.903-2.456 3.28-2.456.04 0 .078.001.117.004.182.063.346.16.533.27.457.269 1.026.604 2.146.639h.07c1.265 0 1.798-.295 2.473-.67.14-.077.285-.158.447-.24l.04-.001c1.405 0 3.114 1.706 3.354 2.428-.826 1.399-1.926 2.393-3.272 2.956-1.148.48-2.22.538-2.795.569l-.216.012a1.62 1.62 0 0 1-.11.004z" class="cls-3" transform="translate(-103 5875.223)"/>
            <path d="M5.004 23.886c-1.044 0-2.27 1.086-2.724 1.943.54.974 1.442 1.753 2.689 2.317 1.152.521 2.319.71 2.822.71l.074-.001.225-.014c1.13-.06 3.714-.198 5.524-3.053-.152-.252-.47-.65-.96-1.05-.608-.497-1.268-.816-1.746-.848-.114.06-.22.12-.324.177-.68.377-1.321.732-2.715.732H7.784c-1.248-.04-1.905-.426-2.385-.709a3.302 3.302 0 0 0-.38-.204h-.015m0-1c.072 0 .143.003.214.01.767.236 1.1.856 2.597.903h.054c1.433 0 1.782-.401 2.787-.904.057-.005.115-.007.174-.007 1.694 0 3.808 2.068 3.88 3.016-2.218 3.933-5.763 3.878-6.776 3.948-.042.003-.09.005-.143.005-1.22 0-5.202-.803-6.607-3.989.38-1.265 2.16-2.982 3.82-2.982z" class="cls-5" transform="translate(-103 5875.223)"/>
        </g>
    </g>
</svg>
