<svg xmlns="http://www.w3.org/2000/svg" id="play_store" width="207" height="70" viewBox="0 0 207 70">
    <defs>
        <style>
            .cls-1{fill:#343a40}.cls-2,.cls-4,.cls-5,.cls-7{fill-rule:evenodd}.cls-2{fill:url(#linear-gradient)}.cls-3{fill:url(#linear-gradient-2)}.cls-4{fill:none}.cls-5{fill:url(#linear-gradient-3)}.cls-6{fill:url(#linear-gradient-4)}.cls-7{fill:#fff}
        </style>
        <linearGradient id="linear-gradient" x1=".589" x2=".908" y1=".096" y2=".609" gradientUnits="objectBoundingBox">
            <stop offset="0" stop-color="#ff177b"/>
            <stop offset="1" stop-color="#ffec73"/>
        </linearGradient>
        <linearGradient id="linear-gradient-2" x1=".371" x2="0" y1="-.44" y2="1.011" gradientUnits="objectBoundingBox">
            <stop offset="0" stop-color="#064aa2"/>
            <stop offset="1" stop-color="#63ffd4"/>
        </linearGradient>
        <linearGradient id="linear-gradient-3" x1=".786" x2=".025" y1=".5" y2="1" gradientUnits="objectBoundingBox">
            <stop offset="0" stop-color="#ff4521"/>
            <stop offset="1" stop-color="#8a33db"/>
        </linearGradient>
        <linearGradient id="linear-gradient-4" x2=".642" y1="-.242" y2="1" gradientUnits="objectBoundingBox">
            <stop offset="0" stop-color="#00a3b5"/>
            <stop offset="1" stop-color="#d6ffa1"/>
        </linearGradient>
    </defs>
    <rect id="Rectangle_1679" width="207" height="70" class="cls-1" data-name="Rectangle 1679" rx="8.4"/>
    <path id="Path_5141" d="M19.393 17.844S2.561.64 1.723.174.045-.008.045.962v34.092c0 .727.6 1.042 1.327.639l15.47-8.563 3-1.662c1.611-.89 4.834-2.674 4.834-2.674l7.535-4.17c.884-.489.8-1.16.053-1.546s-7.588-4.2-7.588-4.2l-5.288 4.964z" class="cls-2" data-name="Path 5141" transform="translate(8.409 25.06)"/>
    <g id="Group_3969" data-name="Group 3969" transform="translate(8.409 25.06)">
        <path id="Path_5142" d="M19.48 17.78L.7 0a.9.9 0 0 0-.7.98V35a.835.835 0 0 0 .42.84z" class="cls-3" data-name="Path 5142"/>
        <path id="Path_5143" d="M24.666 12.88l-7.848-4.34C16.79 8.6 2.514.684 1.682.28.836-.246 0 .036 0 .98v34.16c0 .75.6 1.066 1.261.7.794-.441 15.53-8.616 15.557-8.68l7.848-4.34c-.04.06 6.607-3.628 7.428-4.06.947-.547.862-1.22.14-1.54-.77-.452-7.609-4.272-7.568-4.34" class="cls-4" data-name="Path 5143"/>
    </g>
    <g id="Group_3970" data-name="Group 3970" transform="translate(8.827 42.91)">
        <path id="Path_5144" d="M19.072-.106l-3.134 2.83S5.283 11.876-.418 17.29c0 .75.6 1.066 1.261.7.794-.442 15.53-8.616 15.557-8.68l7.834-4.329s-2.316-2.189-5.162-5.087z" class="cls-5" data-name="Path 5144"/>
    </g>
    <g id="Group_3971" data-name="Group 3971" transform="translate(9.107 25.06)">
        <path id="Path_5145" d="M1 .16A1.427 1.427 0 0 0-.013-.01L18.782 17.8l5.2-4.916-7.838-4.341L4.3 1.986 1 .16z" class="cls-6" data-name="Path 5145"/>
        <path id="Path_5146" d="M23.968 12.88L16.12 8.54C16.093 8.6 1.816.684.984.28.138-.246-.7.036-.7.98v34.16c0 .75.6 1.066 1.262.7.793-.441 15.529-8.616 15.556-8.68l7.848-4.34c-.04.06 6.607-3.628 7.428-4.06.947-.547.862-1.22.14-1.54-.77-.452-7.608-4.272-7.568-4.34" class="cls-4" data-name="Path 5146"/>
    </g>
    <g id="Group_3972" data-name="Group 3972">
        <path id="Path_5147" d="M141.777 48.842l-1.552 1.471c-.359.2-.716.428-1.071.592a7.5 7.5 0 0 1-3.148.615 6.926 6.926 0 0 1-4.32-1.272 8.444 8.444 0 0 1-3.31-6.874 7.378 7.378 0 0 1 7.436-7.534 6.3 6.3 0 0 1 3.342.913 5.459 5.459 0 0 1 2.273 3.227l-7.628 3.1-2.5.195c.808 4.145 3.6 6.555 6.682 6.555a7.985 7.985 0 0 0 3.733-1.026s.21-.11.06.04zm-4.66-8.315c.611-.228.93-.424.93-.881a3.22 3.22 0 0 0-3.18-2.826c-1.282 0-3.688 1.021-3.688 4.568 0 .553.065 1.143.1 1.732l5.84-2.593z" class="cls-7" data-name="Path 5147"/>
        <path id="Path_5148" d="M125.857 48.664c0 1.264.225 1.46 1.288 1.56.554.065 1.106.094 1.652.16l-1.2.716h-5.7c.748-.975.876-1.073.876-1.722v-.726l-.012-19.338h-2.517l2.423-1.174h4.633a2.243 2.243 0 0 0-1.43 2.078l-.009 18.446" class="cls-7" data-name="Path 5148"/>
        <path id="Path_5149" d="M117.014 37.436a5.477 5.477 0 0 1 2.29 4.387c0 2.409-1.349 3.544-2.709 4.618a2.31 2.31 0 0 0-.9 1.591 1.789 1.789 0 0 0 .84 1.4l1.166.907c1.418 1.206 2.71 2.311 2.71 4.557 0 3.058-2.939 6.143-8.493 6.143-4.68 0-6.941-2.244-6.941-4.65a4.674 4.674 0 0 1 2.488-3.966c2-1.233 4.714-1.4 6.166-1.494a3.443 3.443 0 0 1-.971-2.215 2.971 2.971 0 0 1 .323-1.268c-.353.034-.709.069-1.032.069a5.124 5.124 0 0 1-5.36-5.109 5.855 5.855 0 0 1 2.068-4.357 8.766 8.766 0 0 1 5.78-1.79h6.655l-2.069 1.176h-2.006zm-2.271 14.4a4.863 4.863 0 0 0-.75-.036 12.715 12.715 0 0 0-3.415.53 3.7 3.7 0 0 0-2.8 3.41c0 2.348 2.248 4.04 5.726 4.04 3.126 0 4.785-1.524 4.785-3.575 0-1.688-1.074-2.58-3.543-4.37zm.913-6.264a3.288 3.288 0 0 0 .808-2.369c0-2.332-1.379-5.963-4.051-5.963a2.988 2.988 0 0 0-2.25 1.074 3.757 3.757 0 0 0-.707 2.394c0 2.171 1.256 5.772 4.018 5.772a3.276 3.276 0 0 0 2.182-.908zM96.89 51.52A7.677 7.677 0 0 1 89 43.8a8.062 8.062 0 0 1 8.38-7.957 7.616 7.616 0 0 1 7.737 7.726 7.95 7.95 0 0 1-8.227 7.951zm4.023-2.65a5.954 5.954 0 0 0 .975-3.642c0-2.892-1.362-8.408-5.389-8.408a4.5 4.5 0 0 0-2.927 1.114 5 5 0 0 0-1.494 4.01c0 3.245 1.586 8.6 5.52 8.6a4.141 4.141 0 0 0 3.315-1.67zm-21.262 2.65a7.675 7.675 0 0 1-7.895-7.72 8.064 8.064 0 0 1 8.384-7.96 7.613 7.613 0 0 1 7.733 7.726 7.949 7.949 0 0 1-8.222 7.954zm4.025-2.65a5.987 5.987 0 0 0 .974-3.642c0-2.892-1.367-8.408-5.392-8.408a4.484 4.484 0 0 0-2.922 1.114 4.992 4.992 0 0 0-1.5 4.01c0 3.245 1.593 8.6 5.523 8.6a4.144 4.144 0 0 0 3.313-1.67zm-14.054 1.681l-4.356 1a31.661 31.661 0 0 1-5.029.526c-8.4 0-11.6-6.219-11.6-11.086 0-5.943 4.536-11.454 12.306-11.454a17.719 17.719 0 0 1 4.666.638 11.721 11.721 0 0 1 4.018 1.905l-2.535 2.42-1.067.24.76-1.219a8.669 8.669 0 0 0-6.52-2.88c-4.806 0-8.431 3.674-8.431 9.037 0 5.76 4.14 11.177 10.78 11.177a9.031 9.031 0 0 0 3.867-.762v-4.937l-4.6.248 2.438-1.316h6.456l-.79.764a.7.7 0 0 0-.3.488q-.056.737-.063 1.477v3.734m81.557-1.559v8.268h-1.64V36.22h1.64v2.4a6.517 6.517 0 0 1 5.288-2.776c4.067 0 6.807 3.089 6.807 7.979 0 4.857-2.74 8.01-6.807 8.01a6.5 6.5 0 0 1-5.288-2.837zm10.413-5.047c0-3.724-1.926-6.565-5.341-6.565a6.527 6.527 0 0 0-5.03 3.145v6.806c.881 1.468 2.91 3.209 5.03 3.209 3.415 0 5.34-2.865 5.34-6.6zm3.924-13.565h1.684v21.14h-1.682zm19.966 25.42a3.851 3.851 0 0 0 1.329.253c1 0 1.7-.41 2.329-1.862l1.2-2.714-6.46-15.361h1.82l5.542 13.311 5.489-13.311h1.855L190.711 54.7a4.031 4.031 0 0 1-3.871 2.836 6.493 6.493 0 0 1-1.64-.22l.282-1.516m-4.629-4.3c-.11-.532-.193-1-.254-1.391a9.377 9.377 0 0 1-.079-1.194 7.036 7.036 0 0 1-5.72 2.885 5.389 5.389 0 0 1-3.744-1.2 4.179 4.179 0 0 1-1.334-3.263A3.862 3.862 0 0 1 171.656 44a8.9 8.9 0 0 1 5.017-1.282h3.847v-1.9a3.192 3.192 0 0 0-1.118-2.583 4.778 4.778 0 0 0-3.158-.942 5 5 0 0 0-3.02.852 2.6 2.6 0 0 0-1.146 2.145h-1.688l-.035-.082a3.55 3.55 0 0 1 1.592-3.048 6.923 6.923 0 0 1 4.389-1.316 6.834 6.834 0 0 1 4.35 1.3 4.43 4.43 0 0 1 1.646 3.711V48.4a11.949 11.949 0 0 0 .094 1.578 10.046 10.046 0 0 0 .328 1.517h-1.9zM175 50.4a6.164 6.164 0 0 0 3.434-.938 4.733 4.733 0 0 0 2.08-2.406V44.1h-3.864a6.3 6.3 0 0 0-3.657.992 2.875 2.875 0 0 0-1.45 2.392 2.655 2.655 0 0 0 .922 2.112 3.714 3.714 0 0 0 2.532.8z" class="cls-7" data-name="Path 5149"/>
    </g>
    <g id="Group_3973" data-name="Group 3973">
        <path id="Path_5150" d="M48.077 16.144c0-3.016 2.41-4.956 5.408-4.956a4.932 4.932 0 0 1 4.142 1.982l-1.467.79a3.488 3.488 0 1 0-2.675 5.64 3.858 3.858 0 0 0 2.442-.861v-1.48h-3.09v-1.48h4.883v3.581a5.758 5.758 0 0 1-4.235 1.752c-3 0-5.408-1.966-5.408-4.968m11.98 4.822v-9.632h7.16v1.489H61.89v2.482h5.217v1.488H61.89v2.686h5.326v1.487h-7.159m12.028 0v-8.143H68.97v-1.489h8.035v1.489H73.89v8.143h-1.805m11.349-9.632h1.753v9.632h-1.753zm6.766 9.632v-8.143h-3.114v-1.489h8.036v1.489h-3.115v8.143H90.2m10.91-4.816c0-2.862 2.205-4.962 5.333-4.962 3.11 0 5.332 2.1 5.332 4.963s-2.221 4.961-5.332 4.961c-3.128 0-5.333-2.1-5.333-4.961zm8.766-.073a3.434 3.434 0 0 0-6.867 0 3.434 3.434 0 0 0 6.867 0zm11.114 4.889l-5.366-6.888v6.888h-1.8v-9.632h1.85l5.258 6.672v-6.672h1.8v9.632h-1.743" class="cls-7" data-name="Path 5150"/>
    </g>
</svg>
